<svg xmlns='http://www.w3.org/2000/svg' viewBox="0 0 24 24">
<path fill-rule="evenodd" clip-rule="evenodd" d="M12 3.8a8.2 8.2 0 1 0 0 16.4 8.2 8.2 0 0 0 0-16.4ZM2.2 12c0-5.412 4.388-9.8 9.8-9.8 5.412 0 9.8 4.388 9.8 9.8 0 5.412-4.388 9.8-9.8 9.8-5.412 0-9.8-4.388-9.8-9.8Z"></path><path fill-rule="evenodd" clip-rule="evenodd" d="M7.2 12a.8.8 0 0 1 .8-.8h8a.8.8 0 1 1 0 1.6H8a.8.8 0 0 1-.8-.8Z"></path><path fill-rule="evenodd" clip-rule="evenodd" d="M12 7.2a.8.8 0 0 1 .8.8v8a.8.8 0 0 1-1.6 0V8a.8.8 0 0 1 .8-.8Z"></path>
</svg>